<svg width="32" height="32" viewBox="0 0 32 32" fill="none" xmlns="http://www.w3.org/2000/svg">
<path d="M14.9038 0.0625706C14.835 0.0875702 14.135 0.506319 13.3413 0.98757C11.8475 1.89382 11.6663 2.04382 11.585 2.48132C11.535 2.73757 11.635 3.10632 11.81 3.33132C11.9475 3.50632 14.5913 5.13757 14.9913 5.29382C15.3475 5.43132 15.7538 5.36257 16.0413 5.10632C16.3663 4.82507 16.435 4.60007 16.435 3.87507V3.25007H16.61C17.235 3.25007 18.785 3.53757 19.6788 3.81882C24.435 5.33132 27.8788 9.42507 28.5288 14.3626C28.6475 15.2563 28.6475 16.8438 28.5288 17.6751C28.11 20.6251 26.8038 23.1751 24.6663 25.2251C23.8538 26.0063 23.0913 26.5688 22.0413 27.1626C21.635 27.3938 21.2788 27.6313 21.2475 27.6938C21.1413 27.8876 21.1788 28.1751 21.335 28.3563C21.5913 28.6501 21.8475 28.6001 22.735 28.0938C25.7913 26.3438 28.06 23.5501 29.1163 20.2313C29.5663 18.8126 29.7475 17.6251 29.7475 16.0001C29.7475 14.3126 29.5538 13.1001 29.0663 11.6251C28.385 9.60007 27.3475 7.88132 25.8788 6.35632C23.5163 3.91257 20.335 2.40632 16.985 2.15007L16.4475 2.10632L16.4225 1.36882C16.4038 0.73757 16.385 0.606319 16.2725 0.45632C16.035 0.137569 15.7663 7.05719e-05 15.3788 0.00631905C15.185 0.00631905 14.9725 0.0313206 14.9038 0.0625706ZM15.2975 3.40007L15.2788 4.18132L14.06 3.46882C13.3913 3.07507 12.8413 2.72507 12.8413 2.68757C12.8413 2.65632 13.3913 2.29382 14.06 1.89382L15.2788 1.15632L15.2975 1.88757C15.3038 2.28757 15.3038 2.96882 15.2975 3.40007Z" fill="black"/>
<path d="M9.41003 3.68744C7.45378 4.72494 5.78503 6.18744 4.51003 7.97494C3.21628 9.79994 2.34753 12.0749 2.06003 14.3749C1.96628 15.1624 1.98503 16.9374 2.09753 17.8249C2.49753 20.9312 3.98503 23.8562 6.27253 26.0437C7.35378 27.0812 8.36003 27.7749 9.77878 28.4749C11.31 29.2249 12.8163 29.6499 14.5413 29.8249L15.2975 29.8999L15.3225 30.6312C15.3413 31.4437 15.3975 31.5749 15.8163 31.8624C15.9975 31.9874 16.0913 32.0062 16.435 31.9874C16.8288 31.9624 16.8788 31.9437 18.2163 31.1312C19.9163 30.1062 19.96 30.0687 20.0913 29.7249C20.2538 29.3062 20.1788 28.9124 19.885 28.6249C19.6413 28.3874 17.1538 26.8624 16.7475 26.7062C16.4038 26.5687 15.9913 26.6437 15.7038 26.8937C15.3788 27.1749 15.31 27.3999 15.31 28.1249C15.31 28.8624 15.4225 28.8062 14.235 28.6499C8.51628 27.9124 3.97878 23.3749 3.21628 17.6312C3.09753 16.7812 3.09753 15.2187 3.21628 14.3687C3.75378 10.3062 6.16628 6.78119 9.74753 4.81869C10.0725 4.63744 10.3913 4.43119 10.4538 4.36244C10.7038 4.06869 10.4913 3.53744 10.0913 3.46244C9.94753 3.43744 9.79128 3.48744 9.41003 3.68744ZM17.8913 28.6562C18.4663 28.9937 18.9288 29.2874 18.9225 29.3187C18.9038 29.3624 16.8913 30.6374 16.5475 30.8187C16.4413 30.8749 16.435 30.7874 16.435 29.3374V27.7999L16.6413 27.9187C16.7475 27.9874 17.3163 28.3187 17.8913 28.6562Z" fill="black"/>
<path d="M8.43749 8.05615C7.85624 8.2374 7.38749 8.65615 7.09999 9.2499L6.90624 9.65615L6.88749 14.6249C6.86874 19.8687 6.88124 20.2124 7.14999 20.7374C7.36249 21.1499 7.83749 21.5812 8.26874 21.7437C8.58124 21.8562 8.76249 21.8749 9.62499 21.8749H10.625V22.7499C10.625 23.9062 10.7375 24.1937 11.2812 24.4437C11.6 24.5937 11.9 24.5937 12.2187 24.4437C12.3562 24.3812 13.0875 23.7937 13.85 23.1437C14.6062 22.4937 15.275 21.9374 15.3375 21.9187C15.4 21.8937 17.2312 21.8749 19.4062 21.8749C23.25 21.8749 23.3812 21.8687 23.7125 21.7437C24.1375 21.5874 24.6437 21.1374 24.8437 20.7437C25.1187 20.2124 25.1312 19.8812 25.1125 14.6249L25.0937 9.65615L24.9 9.2499C24.675 8.7749 24.3437 8.43115 23.9062 8.1999L23.5937 8.03115L16.0937 8.01865C11.9687 8.0124 8.52499 8.03115 8.43749 8.05615ZM23.4375 9.2624C23.7125 9.4499 23.8687 9.6749 23.9375 9.9749C24.0125 10.2937 24.0125 19.5812 23.9375 19.8999C23.875 20.1812 23.725 20.4062 23.475 20.5874C23.3062 20.7187 23.225 20.7187 19.1687 20.7499L15.0312 20.7812L14.7187 20.9562C14.55 21.0562 13.8187 21.6312 13.0937 22.2437L11.7812 23.3562L11.75 22.4124C11.7187 21.4062 11.6875 21.3062 11.375 21.0374C11.0875 20.7999 10.8125 20.7499 9.74374 20.7499C8.83124 20.7499 8.75624 20.7374 8.55624 20.6062C8.25624 20.4062 8.07499 20.1062 8.03124 19.7312C8.01249 19.5499 7.99999 17.2687 8.01249 14.6562L8.03124 9.90615L8.18124 9.6499C8.26249 9.50615 8.43124 9.33115 8.55624 9.2624L8.78124 9.1249H16.0062H23.2312L23.4375 9.2624Z" fill="black"/>
<path d="M10.2813 11.3438C10.1063 11.5125 10.0688 11.8937 10.2063 12.0687C10.3938 12.3125 10.3938 12.3125 16 12.3125C21.6063 12.3125 21.6063 12.3125 21.7938 12.0687C21.9313 11.8937 21.8938 11.5125 21.7188 11.3438L21.5688 11.1875H16H10.4313L10.2813 11.3438Z" fill="black"/>
<path d="M10.5001 13.8562C10.1313 13.9937 10.0063 14.4562 10.2563 14.775L10.3813 14.9375H16.0001H21.6188L21.7438 14.775C21.9313 14.5375 21.9188 14.1875 21.7126 13.9937L21.5501 13.8438L16.0751 13.8312C13.0626 13.825 10.5501 13.8375 10.5001 13.8562Z" fill="black"/>
<path d="M10.3938 16.5625C10.0875 16.6875 10.0188 17.2125 10.2813 17.4688L10.4313 17.625H13.5813C16.625 17.625 16.7375 17.6188 16.8875 17.5C16.975 17.4313 17.0625 17.3 17.0813 17.2063C17.125 16.9875 16.9875 16.6563 16.825 16.5688C16.6688 16.4875 10.6 16.4813 10.3938 16.5625Z" fill="black"/>
</svg>
