<svg width="38" height="38" viewBox="0 0 38 38" fill="none" xmlns="http://www.w3.org/2000/svg">
<path d="M19.3043 7.91164C18.2281 8.20109 17.293 8.98781 16.7809 10.0269C16.4023 10.7987 16.3281 11.2663 16.3281 12.8175V14.0273H11.5039C8.29766 14.0273 6.55352 14.057 6.29375 14.1089C4.92812 14.3909 3.75547 15.4448 3.25078 16.8476C3.08008 17.33 3.08008 17.3374 3.08008 21.078C3.08008 24.737 3.0875 24.8409 3.24336 25.3456C3.68867 26.7409 4.8168 27.832 6.14531 28.1363L6.53125 28.2253V30.2515C6.53125 32.2777 6.53125 32.2777 6.70937 32.478C7.0582 32.8863 7.07305 32.8788 10.8582 30.4816L14.3242 28.2773H16.2762C18.4582 28.2773 18.9406 28.2105 19.7422 27.8171C20.373 27.5128 21.1969 26.6964 21.516 26.073C21.8871 25.3308 21.9687 24.8484 21.9687 23.3195V21.9687H22.941H23.9133L27.4312 24.1952C31.2535 26.6148 31.2906 26.637 31.6098 26.2288C31.7582 26.0359 31.7656 25.9394 31.7656 24.0023V21.9687L31.9734 21.9241C33.4281 21.605 34.534 20.6327 35.0461 19.2226C35.2168 18.7476 35.2168 18.703 35.2391 15.1331C35.2613 11.1253 35.2465 10.8804 34.7937 9.96008C34.4894 9.34406 33.7547 8.58703 33.1387 8.26047C32.2035 7.77062 32.5152 7.79289 25.7984 7.80031C20.7219 7.80031 19.6383 7.82258 19.3043 7.91164ZM31.5059 8.98039C32.7602 9.16594 33.725 10.0491 33.9848 11.2663C34.0961 11.8081 34.0961 17.9534 33.9848 18.4952C33.7176 19.7273 32.7602 20.603 31.4687 20.7812C31.0234 20.8405 30.8824 20.8925 30.7488 21.0484C30.5855 21.2339 30.5781 21.2784 30.5781 22.978C30.5781 23.9355 30.5633 24.7148 30.541 24.7148C30.5187 24.7148 29.1309 23.8464 27.4535 22.7851L24.4105 20.8554H23.1934H21.9836L21.9539 19.0148C21.9242 16.9738 21.8797 16.7659 21.323 15.8902C20.618 14.7843 19.2598 14.0273 17.9684 14.0273H17.5156V12.8175C17.5156 11.1179 17.6937 10.5019 18.3988 9.80422C18.8219 9.37375 19.4156 9.07688 20.002 8.98781C20.6328 8.89875 30.8676 8.89133 31.5059 8.98039ZM19.0891 15.4894C19.7125 15.7863 20.2098 16.2835 20.5141 16.9218L20.7441 17.4042V21.1152V24.8261L20.5734 25.2566C20.2246 26.1101 19.3266 26.8448 18.3988 27.0155C18.1836 27.0601 17.0926 27.0898 15.9645 27.0898L13.916 27.0972L10.8359 29.0491L7.75586 31.0085L7.73359 29.2198C7.71133 27.1195 7.71875 27.1417 6.97656 27.0675C5.80391 26.9413 4.86875 26.2511 4.43828 25.1823C4.275 24.7593 4.26758 24.6925 4.24531 21.5011C4.21562 18.0277 4.25273 17.5452 4.55703 16.8847C4.89844 16.1351 5.69258 15.4745 6.4793 15.289C6.61289 15.2519 9.38867 15.237 12.6543 15.237L18.5918 15.2519L19.0891 15.4894Z" fill="black"/>
<path d="M25.6351 10.9989C25.3902 11.1103 25.3085 11.3774 25.3085 12.0231V12.6169H23.9726C22.6441 12.6169 22.6292 12.6169 22.4511 12.8024C22.2062 13.0399 22.1988 13.4185 22.4363 13.6411C22.607 13.8044 22.6589 13.8044 24.6628 13.8044C25.791 13.8044 26.7187 13.8267 26.7187 13.8489C26.7187 13.8786 26.548 14.2274 26.3402 14.6208L25.9617 15.3481L25.1824 14.836C24.7519 14.554 24.3289 14.3239 24.2324 14.3239C23.9355 14.3239 23.6757 14.5985 23.6757 14.9103C23.6757 15.2739 23.7351 15.3333 24.5515 15.8751L25.2417 16.3353L24.9449 16.6841C24.7816 16.8771 24.4328 17.2481 24.1656 17.5153C23.7351 17.931 23.6757 18.0274 23.6757 18.2649C23.6757 18.4802 23.7203 18.5841 23.8687 18.6954C24.2324 18.9849 24.4328 18.9106 25.1082 18.2649C25.4421 17.9384 25.8355 17.5228 25.9765 17.3446L26.2363 17.0181L27.3867 17.7825C28.1585 18.3021 28.6039 18.5544 28.7449 18.5544C29.2347 18.5544 29.5093 17.8642 29.1531 17.5376C29.0566 17.456 28.5222 17.0774 27.9582 16.7064L26.9414 16.031L27.1714 15.6376C27.3941 15.2517 27.7058 14.6134 27.9285 14.079L28.0472 13.8044H28.5222C28.9156 13.8044 29.0195 13.7747 29.1531 13.6337C29.3757 13.3962 29.3683 13.0325 29.1308 12.8024C28.9527 12.6169 28.9304 12.6169 27.7207 12.6169H26.496V11.9192C26.496 11.2513 26.4886 11.2067 26.3031 11.0657C26.0878 10.895 25.88 10.8728 25.6351 10.9989Z" fill="black"/>
<path d="M12.1125 17.2409C12.068 17.2929 11.2441 18.8886 10.2793 20.7812C9.12889 23.0374 8.5203 24.314 8.51288 24.4773C8.50545 24.7964 8.72811 25.0265 9.07694 25.0339C9.2328 25.0339 9.4035 24.9894 9.47772 24.9226C9.55194 24.8558 9.8785 24.262 10.2051 23.6089L10.7988 22.414H12.5207H14.2426L14.8808 23.6683C15.4226 24.7519 15.5414 24.9374 15.7344 25.0042C16.1871 25.1601 16.6176 24.8113 16.5285 24.3659C16.4765 24.121 13.0996 17.4636 12.9363 17.2706C12.7953 17.1222 12.2312 17.0925 12.1125 17.2409ZM13.0625 20.1132C13.3445 20.6847 13.582 21.1671 13.582 21.1894C13.582 21.2116 13.0922 21.2265 12.4984 21.2265C11.9047 21.2265 11.4297 21.1968 11.4445 21.1671C11.4965 21.0261 12.5058 19.0741 12.5207 19.0741C12.5355 19.0741 12.773 19.5417 13.0625 20.1132Z" fill="black"/>
</svg>
