<svg width="32" height="31" viewBox="0 0 32 31" fill="none" xmlns="http://www.w3.org/2000/svg">
<path fill-rule="evenodd" clip-rule="evenodd" d="M13.4258 18.3865C11.7718 17.4824 10.6488 15.7268 10.6488 13.711C10.6488 10.7718 13.0353 8.38616 15.9736 8.38616C18.912 8.38616 21.2985 10.7718 21.2985 13.711C21.2985 15.7268 20.1755 17.4824 18.5214 18.3865C21.6818 19.4511 23.9605 22.4398 23.9605 25.9572C23.9605 27.3589 23.5915 28.7366 22.8902 29.9506C22.7481 30.1974 22.4837 30.3499 22.1986 30.3499H9.74871C9.46358 30.3499 9.19922 30.1974 9.05706 29.9506C8.35581 28.7366 7.98682 27.3589 7.98682 25.9572C7.98682 22.4398 10.2655 19.4511 13.4258 18.3865ZM21.7186 28.7526C22.1419 27.8836 22.3631 26.9276 22.3631 25.9572C22.3631 22.431 19.4998 19.5677 15.9736 19.5677C12.4475 19.5677 9.58419 22.431 9.58419 25.9572C9.58419 26.9276 9.80542 27.8836 10.2287 28.7526H21.7186ZM29.7581 20.8049C30.1814 19.9359 30.4026 18.9807 30.4026 18.0095C30.4026 14.4833 27.5394 11.62 24.0132 11.62C23.5723 11.62 23.2145 11.2622 23.2145 10.8213C23.2145 10.3813 23.5723 10.0227 24.0132 10.0227C28.4211 10.0227 32 13.6016 32 18.0095C32 19.412 31.631 20.7889 30.9298 22.0029C30.7868 22.2505 30.5232 22.4022 30.2381 22.4022H24.5978C24.1569 22.4022 23.7991 22.0444 23.7991 21.6036C23.7991 21.1635 24.1569 20.8049 24.5978 20.8049H29.7581ZM2.2419 20.7657H7.40219C7.84306 20.7657 8.20087 21.1235 8.20087 21.5644C8.20087 22.0053 7.84306 22.3631 7.40219 22.3631H1.76189C1.47676 22.3631 1.2124 22.2106 1.07023 21.9638C0.368991 20.7498 0 19.372 0 17.9703C0 13.5624 3.57889 9.98353 7.98682 9.98353C8.42769 9.98353 8.7855 10.3413 8.7855 10.7822C8.7855 11.2231 8.42769 11.5809 7.98682 11.5809C4.46064 11.5809 1.59736 14.4442 1.59736 17.9703C1.59736 18.9407 1.8186 19.8968 2.2419 20.7657ZM15.9736 9.98353C18.031 9.98353 19.7011 11.6536 19.7011 13.711C19.7011 15.7676 18.031 17.4376 15.9736 17.4376C13.9162 17.4376 12.2462 15.7676 12.2462 13.711C12.2462 11.6536 13.9162 9.98353 15.9736 9.98353ZM23.5611 0C20.9167 0 18.769 2.14766 18.769 4.79209C18.769 7.43653 20.9167 9.58418 23.5611 9.58418C26.2056 9.58418 28.3532 7.43653 28.3532 4.79209C28.3532 2.14766 26.2056 0 23.5611 0ZM8.7855 0C6.14107 0 3.99341 2.14766 3.99341 4.79209C3.99341 7.43653 6.14107 9.58418 8.7855 9.58418C11.4299 9.58418 13.5776 7.43653 13.5776 4.79209C13.5776 2.14766 11.4299 0 8.7855 0ZM23.5611 1.59736C25.3246 1.59736 26.7559 3.0286 26.7559 4.79209C26.7559 6.55558 25.3246 7.98682 23.5611 7.98682C21.7976 7.98682 20.3664 6.55558 20.3664 4.79209C20.3664 3.0286 21.7976 1.59736 23.5611 1.59736ZM8.7855 1.59736C10.549 1.59736 11.9802 3.0286 11.9802 4.79209C11.9802 6.55558 10.549 7.98682 8.7855 7.98682C7.02201 7.98682 5.59078 6.55558 5.59078 4.79209C5.59078 3.0286 7.02201 1.59736 8.7855 1.59736Z" fill="black"/>
</svg>
