<svg width="27" height="28" viewBox="0 0 27 28" fill="none" xmlns="http://www.w3.org/2000/svg">
<path d="M19.0913 8.76C18.61 7.87333 17.9133 7.202 17.0013 6.746C16.1147 6.26466 15.0633 6.024 13.8473 6.024C11.7447 6.024 10.06 6.72067 8.79334 8.114C7.52668 9.482 6.89334 11.3187 6.89334 13.624C6.89334 16.0813 7.55201 18.0067 8.86934 19.4C10.212 20.768 12.0487 21.452 14.3793 21.452C15.9753 21.452 17.318 21.0467 18.4073 20.236C19.522 19.4253 20.3327 18.26 20.8393 16.74H12.5933V11.952H26.7293V17.994C26.248 19.6153 25.4247 21.1227 24.2593 22.516C23.1193 23.9093 21.6627 25.0367 19.8893 25.898C18.116 26.7593 16.1147 27.19 13.8853 27.19C11.2507 27.19 8.89468 26.62 6.81734 25.48C4.76534 24.3147 3.15668 22.706 1.99134 20.654C0.851344 18.602 0.281344 16.2587 0.281344 13.624C0.281344 10.9893 0.851344 8.646 1.99134 6.594C3.15668 4.51667 4.76534 2.908 6.81734 1.768C8.86934 0.602665 11.2127 0.0199986 13.8473 0.0199986C17.0393 0.0199986 19.7247 0.792665 21.9033 2.338C24.1073 3.88333 25.564 6.024 26.2733 8.76H19.0913Z" fill="black"/>
</svg>
